<svg  width="800" class="poloto_background poloto" height="500" viewBox="0 0 800 500" xmlns="http://www.w3.org/2000/svg" > <style>.poloto { stroke-linecap:round; stroke-linejoin:round; font-family: 'Tahoma', sans-serif; stroke-width:2; } .scatter{stroke-width:7} .poloto_text{fill: black;} .poloto_axis_lines{stroke: black;stroke-width:3;fill:none;stroke-dasharray:none} .poloto_background{background-color: AliceBlue;} .poloto0stroke{stroke:  blue;} .poloto1stroke{stroke:  red;} .poloto2stroke{stroke:  green;} .poloto3stroke{stroke:  gold;} .poloto4stroke{stroke:  aqua;} .poloto5stroke{stroke:  lime;} .poloto6stroke{stroke:  orange;} .poloto7stroke{stroke:  chocolate;} .poloto0fill{fill:blue;} .poloto1fill{fill:red;} .poloto2fill{fill:green;} .poloto3fill{fill:gold;} .poloto4fill{fill:aqua;} .poloto5fill{fill:lime;} .poloto6fill{fill:orange;} .poloto7fill{fill:chocolate;}</style><text  class="poloto_text" alignment-baseline="middle" text-anchor="start" font-size="large" x="675" y="100" >Stand.Norm.Dist.</text><rect  class="poloto0fill poloto0legend" x="680" y="76.25" width="50" height="7.5" rx="5" ry="5" /><g  class="poloto0fill" ><rect  x="150" y="399.07120743034056" width="3" height="0.9287925696594357" /><rect  x="155" y="399.07120743034056" width="3" height="0.9287925696594357" /><rect  x="160" y="399.07120743034056" width="3" height="0.9287925696594357" /><rect  x="165" y="399.07120743034056" width="3" height="0.9287925696594357" /><rect  x="170" y="399.07120743034056" width="3" height="0.9287925696594357" /><rect  x="175" y="399.07120743034056" width="3" height="0.9287925696594357" /><rect  x="180" y="397.2136222910217" width="3" height="2.786377708978307" /><rect  x="185" y="400" width="3" height="0" /><rect  x="190" y="399.07120743034056" width="3" height="0.9287925696594357" /><rect  x="195" y="396.28482972136226" width="3" height="3.7151702786377427" /><rect  x="200" y="396.28482972136226" width="3" height="3.7151702786377427" /><rect  x="205" y="394.42724458204333" width="3" height="5.572755417956671" /><rect  x="210" y="393.4984520123839" width="3" height="6.501547987616107" /><rect  x="215" y="394.42724458204333" width="3" height="5.572755417956671" /><rect  x="220" y="391.640866873065" width="3" height="8.359133126934978" /><rect  x="225" y="392.56965944272446" width="3" height="7.430340557275542" /><rect  x="230" y="387.9256965944272" width="3" height="12.074303405572778" /><rect  x="235" y="387.9256965944272" width="3" height="12.074303405572778" /><rect  x="240" y="375.8513931888545" width="3" height="24.1486068111455" /><rect  x="245" y="378.6377708978328" width="3" height="21.36222910216719" /><rect  x="250" y="380.4953560371517" width="3" height="19.50464396284832" /><rect  x="255" y="373.99380804953563" width="3" height="26.00619195046437" /><rect  x="260" y="367.4922600619195" width="3" height="32.507739938080476" /><rect  x="265" y="360.061919504644" width="3" height="39.93808049535602" /><rect  x="270" y="347.05882352941177" width="3" height="52.94117647058823" /><rect  x="275" y="337.77089783281735" width="3" height="62.229102167182646" /><rect  x="280" y="329.4117647058824" width="3" height="70.58823529411762" /><rect  x="285" y="322.91021671826627" width="3" height="77.08978328173373" /><rect  x="290" y="319.19504643962847" width="3" height="80.80495356037153" /><rect  x="295" y="306.1919504643963" width="3" height="93.80804953560369" /><rect  x="300" y="289.4736842105263" width="3" height="110.5263157894737" /><rect  x="305" y="280.1857585139319" width="3" height="119.81424148606811" /><rect  x="310" y="269.04024767801855" width="3" height="130.95975232198145" /><rect  x="315" y="276.47058823529414" width="3" height="123.52941176470586" /><rect  x="320" y="228.1733746130031" width="3" height="171.8266253869969" /><rect  x="325" y="234.6749226006192" width="3" height="165.3250773993808" /><rect  x="330" y="223.52941176470588" width="3" height="176.47058823529412" /><rect  x="335" y="183.59133126934987" width="3" height="216.40866873065013" /><rect  x="340" y="209.59752321981426" width="3" height="190.40247678018574" /><rect  x="345" y="190.09287925696594" width="3" height="209.90712074303406" /><rect  x="350" y="194.73684210526318" width="3" height="205.26315789473682" /><rect  x="355" y="134.3653250773994" width="3" height="265.6346749226006" /><rect  x="360" y="144.58204334365325" width="3" height="255.41795665634675" /><rect  x="365" y="140.8668730650155" width="3" height="259.1331269349845" /><rect  x="370" y="108.35913312693498" width="3" height="291.640866873065" /><rect  x="375" y="117.64705882352945" width="3" height="282.35294117647055" /><rect  x="380" y="118.57585139318888" width="3" height="281.4241486068111" /><rect  x="385" y="112.07430340557278" width="3" height="287.9256965944272" /><rect  x="390" y="100" width="3" height="300" /><rect  x="395" y="113.93188854489165" width="3" height="286.06811145510835" /><rect  x="400" y="128.79256965944273" width="3" height="271.20743034055727" /><rect  x="405" y="134.3653250773994" width="3" height="265.6346749226006" /><rect  x="410" y="134.3653250773994" width="3" height="265.6346749226006" /><rect  x="415" y="128.79256965944273" width="3" height="271.20743034055727" /><rect  x="420" y="134.3653250773994" width="3" height="265.6346749226006" /><rect  x="425" y="141.79566563467495" width="3" height="258.20433436532505" /><rect  x="430" y="167.80185758513932" width="3" height="232.19814241486068" /><rect  x="435" y="159.44272445820434" width="3" height="240.55727554179566" /><rect  x="440" y="172.44582043343655" width="3" height="227.55417956656345" /><rect  x="445" y="228.1733746130031" width="3" height="171.8266253869969" /><rect  x="450" y="211.45510835913313" width="3" height="188.54489164086687" /><rect  x="455" y="240.24767801857587" width="3" height="159.75232198142413" /><rect  x="460" y="211.45510835913313" width="3" height="188.54489164086687" /><rect  x="465" y="256.9659442724458" width="3" height="143.03405572755418" /><rect  x="470" y="253.25077399380805" width="3" height="146.74922600619195" /><rect  x="475" y="275.5417956656347" width="3" height="124.45820433436529" /><rect  x="480" y="286.687306501548" width="3" height="113.312693498452" /><rect  x="485" y="299.6904024767802" width="3" height="100.3095975232198" /><rect  x="490" y="318.26625386996903" width="3" height="81.73374613003097" /><rect  x="495" y="299.6904024767802" width="3" height="100.3095975232198" /><rect  x="500" y="329.4117647058824" width="3" height="70.58823529411762" /><rect  x="505" y="336.8421052631579" width="3" height="63.15789473684208" /><rect  x="510" y="334.05572755417955" width="3" height="65.94427244582045" /><rect  x="515" y="358.20433436532505" width="3" height="41.79566563467495" /><rect  x="520" y="352.63157894736844" width="3" height="47.36842105263156" /><rect  x="525" y="370.27863777089783" width="3" height="29.72136222910217" /><rect  x="530" y="376.78018575851394" width="3" height="23.219814241486063" /><rect  x="535" y="373.99380804953563" width="3" height="26.00619195046437" /><rect  x="540" y="384.2105263157895" width="3" height="15.78947368421052" /><rect  x="545" y="381.4241486068112" width="3" height="18.575851393188827" /><rect  x="550" y="383.28173374613004" width="3" height="16.718266253869956" /><rect  x="555" y="394.42724458204333" width="3" height="5.572755417956671" /><rect  x="560" y="390.7120743034056" width="3" height="9.287925696594414" /><rect  x="565" y="392.56965944272446" width="3" height="7.430340557275542" /><rect  x="570" y="393.4984520123839" width="3" height="6.501547987616107" /><rect  x="575" y="392.56965944272446" width="3" height="7.430340557275542" /><rect  x="580" y="400" width="3" height="0" /><rect  x="585" y="396.28482972136226" width="3" height="3.7151702786377427" /><rect  x="590" y="395.35603715170276" width="3" height="4.643962848297235" /><rect  x="595" y="400" width="3" height="0" /><rect  x="600" y="399.07120743034056" width="3" height="0.9287925696594357" /><rect  x="605" y="400" width="3" height="0" /><rect  x="610" y="400" width="3" height="0" /><rect  x="615" y="400" width="3" height="0" /><rect  x="620" y="400" width="3" height="0" /><rect  x="625" y="400" width="3" height="0" /><rect  x="630" y="400" width="3" height="0" /><rect  x="635" y="400" width="3" height="0" /><rect  x="640" y="399.07120743034056" width="3" height="0.9287925696594357" /><rect  x="645" y="400" width="3" height="0" /></g><text  class="poloto_text" alignment-baseline="start" text-anchor="middle" font-size="x-large" x="400" y="37.5" >Histogram</text><text  class="poloto_text" alignment-baseline="start" text-anchor="middle" font-size="x-large" x="400" y="481.25" >x</text><text  class="poloto_text" alignment-baseline="start" text-anchor="middle" font-size="x-large" transform="rotate(-90,37.5,250)" x="37.5" y="250" >y</text><line  class="poloto_axis_lines" stroke="black" x1="150" x2="150" y1="400" y2="405" /><text  class="poloto_text" alignment-baseline="start" text-anchor="middle" x="150" y="430" > 0</text><line  class="poloto_axis_lines" stroke="black" x1="250" x2="250" y1="400" y2="405" /><text  class="poloto_text" alignment-baseline="start" text-anchor="middle" x="250" y="430" > 20</text><line  class="poloto_axis_lines" stroke="black" x1="350" x2="350" y1="400" y2="405" /><text  class="poloto_text" alignment-baseline="start" text-anchor="middle" x="350" y="430" > 40</text><line  class="poloto_axis_lines" stroke="black" x1="450" x2="450" y1="400" y2="405" /><text  class="poloto_text" alignment-baseline="start" text-anchor="middle" x="450" y="430" > 60</text><line  class="poloto_axis_lines" stroke="black" x1="550" x2="550" y1="400" y2="405" /><text  class="poloto_text" alignment-baseline="start" text-anchor="middle" x="550" y="430" > 80</text><line  class="poloto_axis_lines" stroke="black" x1="650" x2="650" y1="400" y2="405" /><text  class="poloto_text" alignment-baseline="start" text-anchor="middle" x="650" y="430" > 100</text><line  class="poloto_axis_lines" stroke="black" x1="150" x2="144" y1="400" y2="400" /><text  class="poloto_text" alignment-baseline="middle" text-anchor="end" x="135" y="400" > 0</text><line  class="poloto_axis_lines" stroke="black" x1="150" x2="144" y1="307.12074303405575" y2="307.12074303405575" /><text  class="poloto_text" alignment-baseline="middle" text-anchor="end" x="135" y="307.12074303405575" > 100</text><line  class="poloto_axis_lines" stroke="black" x1="150" x2="144" y1="214.2414860681115" y2="214.2414860681115" /><text  class="poloto_text" alignment-baseline="middle" text-anchor="end" x="135" y="214.2414860681115" > 200</text><line  class="poloto_axis_lines" stroke="black" x1="150" x2="144" y1="121.36222910216719" y2="121.36222910216719" /><text  class="poloto_text" alignment-baseline="middle" text-anchor="end" x="135" y="121.36222910216719" > 300</text><path  stroke="black" fill="none" class="poloto_axis_lines" style="stroke-dasharray:8.333333333333334;stroke-dashoffset:-0;" d=" M 150 400 L 650 400" /><path  stroke="black" fill="none" class="poloto_axis_lines" style="stroke-dasharray:9.287925696594426;stroke-dashoffset:-0;" d=" M 150 400 L 150 100" /></svg>