<svg  width="800" class="poloto_background poloto" height="500" viewBox="0 0 800 500" xmlns="http://www.w3.org/2000/svg" > <style>.poloto { stroke-linecap:round; stroke-linejoin:round; font-family: 'Tahoma', sans-serif; stroke-width:2; } .scatter{stroke-width:7} .poloto_text{fill: black;} .poloto_axis_lines{stroke: black;stroke-width:3;fill:none;stroke-dasharray:none} .poloto_background{background-color: AliceBlue;} .poloto0stroke{stroke:  blue;} .poloto1stroke{stroke:  red;} .poloto2stroke{stroke:  green;} .poloto3stroke{stroke:  gold;} .poloto4stroke{stroke:  aqua;} .poloto5stroke{stroke:  lime;} .poloto6stroke{stroke:  orange;} .poloto7stroke{stroke:  chocolate;} .poloto0fill{fill:blue;} .poloto1fill{fill:red;} .poloto2fill{fill:green;} .poloto3fill{fill:gold;} .poloto4fill{fill:aqua;} .poloto5fill{fill:lime;} .poloto6fill{fill:orange;} .poloto7fill{fill:chocolate;}</style><text  class="poloto_text" alignment-baseline="middle" text-anchor="start" font-size="large" x="675" y="100" ></text><path  class="poloto0stroke" fill="none" stroke="black" d=" M 150 250 L 650 250" /><text  class="poloto_text" alignment-baseline="middle" text-anchor="start" font-size="large" x="675" y="150" ></text><path  class="poloto1stroke" fill="none" stroke="black" d=" M 400 400 L 400 100" /><text  class="poloto_text" alignment-baseline="middle" text-anchor="start" font-size="large" x="675" y="200" >Stand.Norm.Dist</text><line  class="scatter poloto2stroke poloto2legend" stroke="black" x1="685" x2="685" y1="181.25" y2="181.25" /><path  class="scatter poloto2stroke" d=" M 434.5425365638604 298.56738696933155 h 0 M 457.5787552658377 171.72926558631812 h 0 M 562.1331525768908 297.25856107041386 h 0 M 405.2674792039189 264.1757395988582 h 0 M 470.55680186099966 264.94394549082995 h 0 M 501.0691044953115 337.61977869690475 h 0 M 412.1986916683226 221.78478639657934 h 0 M 448.55040437957007 232.77163739150112 h 0 M 300.5782256619787 318.3755940117421 h 0 M 402.0398978073659 284.2440615102657 h 0 M 248.46145465249919 320.3249591406937 h 0 M 423.63518886025275 297.5065155441107 h 0 M 381.8549343667156 290.83272166551114 h 0 M 293.9012648712653 295.26804961237985 h 0 M 475.75106720496717 258.5405767555362 h 0 M 429.7851407272263 277.22060798678115 h 0 M 334.4446630922222 234.17192848080649 h 0 M 407.9046001674102 276.8584973092669 h 0 M 305.0391128175812 317.89379807921944 h 0 M 411.75724135459654 302.3942430942771 h 0 M 416.3161631850053 271.29204094069564 h 0 M 401.008447775684 209.21665941259587 h 0 M 430.52113898720717 224.09241445792406 h 0 M 274.0336197420585 199.36584311318214 h 0 M 463.4435139981066 211.53076895853377 h 0 M 356.01796532742105 215.9902144304182 h 0 M 261.8239773936575 209.40037597816817 h 0 M 577.1449839702213 298.07361913860467 h 0 M 543.4142728547815 176.88708951990512 h 0 M 396.6790275014451 188.69063398525415 h 0 M 583.1402013074153 293.33509344239775 h 0 M 393.53402569360503 172.96588870591597 h 0 M 390.60905996520853 324.0172208952425 h 0 M 450.41226053064815 185.22840236852608 h 0 M 324.06075415159023 279.73018229938737 h 0 M 326.2570104250557 223.45540172143737 h 0 M 539.6454918896997 156.56829895259668 h 0 M 527.6136557228622 268.8660051698491 h 0 M 455.67813941028595 198.69635586052263 h 0 M 185.6733147154188 267.38275268291557 h 0 M 372.0000673204823 293.2966477286243 h 0 M 392.7887334942705 199.71244135463624 h 0 M 490.9697581944672 184.9565546712857 h 0 M 506.40457191292495 286.441725632837 h 0 M 362.4492081636689 181.9695037024231 h 0 M 242.42644884237023 239.25487907425344 h 0 M 410.4173964772189 199.2020719206664 h 0 M 542.0046120148918 225.44294577681006 h 0 M 336.71637293510867 249.28791702066022 h 0 M 367.56847276647335 263.1342181321305 h 0 M 238.68060946410202 252.49041327563674 h 0 M 514.9379978924412 334.73487988883545 h 0 M 492.0828954658986 288.73301907822406 h 0 M 256.1134026931578 281.4116282049494 h 0 M 623.9643419712321 265.57173970002015 h 0 M 235.51601375008664 207.2483593532666 h 0 M 442.2112541534701 293.27512798264 h 0 M 551.5063049611479 237.0451015540445 h 0 M 391.73927092469035 288.89312275203275 h 0 M 436.0649535970928 125.87396870058802 h 0 M 318.8758342767619 182.38597431695825 h 0 M 256.70881620239845 239.46880776277558 h 0 M 503.7986670313989 162.2077181743745 h 0 M 414.8180707064167 215.06671635451167 h 0 M 510.5129891162445 245.05597353405716 h 0 M 312.11085394647625 263.3048185770599 h 0 M 441.42262237611595 209.0302955421707 h 0 M 412.3096169054897 243.8319946875853 h 0 M 329.6475707483527 275.418551939974 h 0 M 361.8629513058356 133.30197356550127 h 0 M 345.32109099450474 241.8266018971123 h 0 M 433.0534346840128 294.073747284645 h 0 M 335.7765047998503 293.8627028859038 h 0 M 398.2366299766022 276.4623467204119 h 0 M 440.43410128982646 287.02511837463805 h 0 M 506.2174497677682 279.62703457686644 h 0 M 353.7983640039979 256.31955319143833 h 0 M 397.327903497089 308.13914801326564 h 0 M 301.56482228447265 228.72050369591904 h 0 M 406.50162985055067 191.65236547248412 h 0 M 294.684650643816 300.0655979599525 h 0 M 433.0342011731663 187.57491233074072 h 0 M 325.7756163181425 287.9500447179311 h 0 M 535.0841173017313 216.80715185086197 h 0 M 323.4126721059275 243.31478352927874 h 0 M 305.8391600140918 235.64287473836828 h 0 M 250.35598193596252 241.09275948734523 h 0 M 233.57755125260314 250.61294007111533 h 0 M 488.19595349341586 212.2812680461264 h 0 M 469.8210811567277 246.78657735170833 h 0 M 499.557511917716 161.77767798311572 h 0 M 324.2516265945053 224.9898400760369 h 0 M 485.05564525915685 215.96986391226812 h 0 M 442.3379262057147 221.80946044320999 h 0 M 353.7048760811206 193.328590374132 h 0 M 329.87197005861753 223.31835384619646 h 0 M 278.6533143162567 226.96898685787866 h 0 M 488.4987559204347 394.420923028428 h 0 M 336.2522059928167 255.88541279904697 h 0 M 425.1567100597376 278.0907234259304 h 0 M 534.6813909667594 231.7742218089244 h 0 M 457.1247117892758 285.88892011484796 h 0 M 444.82837431456403 266.14570980300005 h 0 M 331.1573459230663 223.73876498930247 h 0 M 342.9547718062486 207.4709978080663 h 0 M 393.16449180424286 204.70776864500974 h 0 M 258.4862780515249 232.59531660491797 h 0 M 407.26475714433866 300.75923975998757 h 0 M 461.50607643201755 205.4701301252627 h 0 M 584.149510422708 236.93898182215403 h 0 M 369.42407583005337 237.25774167281708 h 0 M 562.7653562715832 287.64248978231035 h 0 M 501.54309030744554 258.88014569022994 h 0 M 359.73555388469566 345.35116365285216 h 0 M 326.3350761437607 308.18359825325217 h 0 M 359.3531950670285 178.405395783824 h 0 M 393.12484840635386 174.03969224570147 h 0 M 487.7811339941723 249.82524946320376 h 0 M 483.55293470030693 237.719870970836 h 0 M 521.8548066452898 319.9378124718193 h 0 M 373.7996463518557 219.37719162994003 h 0 M 360.2547137693043 251.7568689955504 h 0 M 521.9046762820556 233.79393241570924 h 0 M 412.8658087500599 316.80651592913665 h 0 M 352.32575398351713 255.33665868470044 h 0 M 506.07942923267854 240.82472967724854 h 0 M 484.314697606485 287.8695666351367 h 0 M 331.8483943933974 234.6534160624594 h 0 M 343.7628186029716 203.56107196404048 h 0 M 486.6111890998926 250.54672204183413 h 0 M 344.6451365682441 208.68288406341836 h 0 M 420.98912496782054 296.6083985085061 h 0 M 502.6445189676012 203.87949118221798 h 0 M 457.4204579517303 193.1654971690201 h 0 M 481.5779887918544 228.35357616350765 h 0 M 288.1787776023935 229.93419319971562 h 0 M 258.2391852014113 341.8866351931325 h 0 M 512.4496124480506 202.20047950831804 h 0 M 412.8462745317749 167.66190337158835 h 0 M 297.4950065577852 289.2047797615795 h 0 M 397.53266745987014 224.61831607404818 h 0 M 487.8054476000076 158.61683952005583 h 0 M 451.8410212719514 311.3361495012081 h 0 M 329.7227979576063 194.9712298830717 h 0 M 477.6817975407301 269.47310686205276 h 0 M 501.9473295286793 257.25673627170863 h 0 M 576.3623452509175 190.22655651464189 h 0 M 428.21109473035 351.9740098083259 h 0 M 421.28464316106323 290.9065558152628 h 0 M 483.683711682771 276.509746068912 h 0 M 498.6424878266602 357.32705968878304 h 0 M 377.21947299259085 280.4933452784436 h 0 M 282.0795392320899 213.56355230073137 h 0 M 644.6931734330789 272.4610192303356 h 0 M 244.62333535046054 228.0731005381588 h 0 M 410.8949344956192 208.5288274672918 h 0 M 526.8857063354271 228.60303920400372 h 0 M 403.2614392808633 295.029046941615 h 0 M 413.4221964679163 302.8446984111269 h 0 M 338.4473156461702 214.66372138061422 h 0 M 260.85413356791133 165.41818800805927 h 0 M 468.1503766042883 271.88616762278997 h 0 M 247.39190931638115 291.9188503758459 h 0 M 410.4866143551212 244.6234642845283 h 0 M 410.54779425484577 244.05855542277513 h 0 M 280.48124726049195 227.8021637739282 h 0 M 398.71447823245626 262.2252333304001 h 0 M 450.897463579167 269.0153828159346 h 0 M 419.63095033946706 226.58783173577154 h 0 M 391.5586884104711 299.7415349384985 h 0 M 399.7932977188426 242.05292895825454 h 0 M 567.3437727367746 170.70822675545892 h 0 M 411.93143713114165 253.12827112056365 h 0 M 448.7669330097135 237.64642865908527 h 0 M 395.9677544136013 197.33361901649485 h 0 M 467.58535802755455 278.9403240068167 h 0 M 283.9950444013905 304.79727717086377 h 0 M 379.7246093943803 171.31851065764909 h 0 M 567.6793694108319 276.7591625798542 h 0 M 395.27411606940177 241.7041150602505 h 0 M 456.64716936185425 320.79604094810384 h 0 M 413.78115037706965 209.28482542655644 h 0 M 519.8882697922077 250.67708523056757 h 0 M 360.2875103931892 218.95545574610867 h 0 M 340.31550501708205 286.2476970254303 h 0 M 455.4715684185308 253.9446886720948 h 0 M 411.54495295629204 210.46897986882385 h 0 M 276.10197773868146 172.53178939358403 h 0 M 387.8583794927264 225.2421145765276 h 0 M 580.2018099023551 168.33176514949977 h 0 M 322.69033309393933 171.89608167244782 h 0 M 320.3039612783566 307.52275854232386 h 0 M 562.9747793349017 308.8681225847145 h 0 M 372.1951619965895 214.87885734009902 h 0 M 485.16352705249534 177.94242164809822 h 0 M 226.9455063874517 209.6591768817582 h 0 M 416.6599717822853 279.97707280350335 h 0 M 403.98389215096313 292.30891077770053 h 0 M 279.7797535432671 250.52871601817523 h 0 M 418.5523214495835 222.76676592805998 h 0 M 531.3997102104377 163.31809008966616 h 0 M 540.3721537432069 249.84580339264426 h 0 M 322.10387796200143 300.30443476878884 h 0 M 457.7191917255272 292.58698204989764 h 0 M 354.47871945552765 250.29200347003638 h 0 M 484.1995218629122 190.28232279224494 h 0 M 492.20759960247153 319.55263580287783 h 0 M 424.26350900932107 217.41381245756654 h 0 M 554.2370181733319 212.51819604867575 h 0 M 629.7979253749236 292.284822930085 h 0 M 355.5089827659249 227.98783738267522 h 0 M 470.8629957748737 283.1122052610586 h 0 M 561.5596293757842 250.62639500825063 h 0 M 454.25825909026474 272.2042705857896 h 0 M 266.20239461021373 208.01630009974653 h 0 M 328.74860428487466 261.30735776128654 h 0 M 304.35108338120256 227.06974484403716 h 0 M 472.95384676954427 189.27628012674208 h 0 M 403.6719687756031 264.3414139993928 h 0 M 459.43857181855503 279.0218711829585 h 0 M 317.0138628599449 277.96665965803516 h 0 M 407.0429680840765 250.67281822338154 h 0 M 393.06010825624963 197.2777960041628 h 0 M 324.12879527032374 220.6710262142481 h 0 M 391.30696870011025 202.94125312108298 h 0 M 406.41181940106725 287.07579206129486 h 0 M 313.4809977250841 229.43020814296617 h 0 M 366.63192081845534 243.61730825311264 h 0 M 349.02777623602867 274.72075306687344 h 0 M 261.1438250247387 186.13444048941065 h 0 M 387.4933742608905 257.6852300876101 h 0 M 469.26355359051536 166.06132502376897 h 0 M 399.62710768046117 179.90910421000672 h 0 M 243.6150107626254 310.05588025177343 h 0 M 362.5361896837998 270.5873394203904 h 0 M 501.58616625589457 244.36965398307854 h 0 M 500.63382124139986 326.3559524579381 h 0 M 313.4778246910754 191.6751379185508 h 0 M 401.7973073391588 219.69641616100216 h 0 M 289.5470273045306 327.4883229430211 h 0 M 464.51099606863687 260.9526085947362 h 0 M 412.84772288957674 227.6329278753785 h 0 M 493.0291369291264 312.1771981196076 h 0 M 397.06667516379594 237.4674184140473 h 0 M 428.2862726259602 241.4849400246337 h 0 M 482.32742233112344 297.50625650722867 h 0 M 471.45653157393775 231.3394510431986 h 0 M 437.0600906639519 278.7742267599627 h 0 M 343.14000516049344 348.3036451542717 h 0 M 458.5505572421661 237.83802265687424 h 0 M 429.8609762883285 260.28849463734366 h 0 M 596.9902475539886 273.2281330140402 h 0 M 415.09254209500216 317.00653219329297 h 0 M 427.9768877442763 294.57364194638325 h 0 M 308.77177031020483 228.19262567608465 h 0 M 495.67218243358064 265.39501490548423 h 0 M 355.58982304166165 279.3920323881206 h 0 M 296.92837193730566 272.81341169504344 h 0 M 552.3563597776324 246.2699589225523 h 0 M 492.2188702087238 210.698170533212 h 0 M 377.92788069786445 216.92077267909963 h 0 M 390.1426496646154 254.83385643358196 h 0 M 296.73879514002795 227.5647293754939 h 0 M 302.89808140844445 246.99556344546872 h 0 M 365.5195026065693 290.2943504820531 h 0 M 307.7620422327584 222.77281429059389 h 0 M 348.4292222402819 250.44879487330348 h 0 M 395.98884112206775 220.1710999642142 h 0 M 237.73626208070104 226.88738301936365 h 0 M 323.43328382522 199.79707289455044 h 0 M 396.5716050346322 210.06759637774087 h 0 M 436.847314949315 268.98136623586106 h 0 M 406.54836375250125 222.41591374590374 h 0 M 386.6669193577862 238.8739507500862 h 0 M 347.3402060361823 296.03044649231475 h 0 M 317.52217423730633 244.37327043439683 h 0 M 332.0008628325888 197.07818702829337 h 0 M 316.71132750683046 318.28086748231044 h 0 M 435.1198570437697 232.61099367591513 h 0 M 509.89402479734696 331.2949986553217 h 0 M 504.1191724846134 323.41277502421684 h 0 M 309.2213599039035 211.4541213305803 h 0 M 308.14404397060093 344.3916242223718 h 0 M 479.68663996262035 188.42149704821978 h 0 M 467.14626264488766 230.11841000728174 h 0 M 482.7799924100793 329.3185240774287 h 0 M 452.6951095631986 219.48340983914682 h 0 M 367.89305632128486 246.77177591161688 h 0 M 233.95318830792272 219.82643588840352 h 0 M 529.9990906775022 136.35625730384817 h 0 M 215.67565460053578 273.30200581871986 h 0 M 267.0165111364431 225.45891700517734 h 0 M 338.4413035732322 293.097970595431 h 0 M 271.6613728048337 258.5190593110466 h 0 M 335.8990041510949 265.31052163464153 h 0 M 261.79108350009426 280.8427097502409 h 0 M 443.8139832570306 321.21115199748414 h 0 M 413.1525993578599 323.76511984061233 h 0 M 407.29858088047916 156.18435047427698 h 0 M 358.2091655597589 233.99071943844731 h 0" /><text  class="poloto_text" alignment-baseline="start" text-anchor="middle" font-size="x-large" x="400" y="37.5" >Scatter Plot</text><text  class="poloto_text" alignment-baseline="start" text-anchor="middle" font-size="x-large" x="400" y="481.25" >x</text><text  class="poloto_text" alignment-baseline="start" text-anchor="middle" font-size="x-large" transform="rotate(-90,37.5,250)" x="37.5" y="250" >y</text><line  class="poloto_axis_lines" stroke="black" x1="150" x2="150" y1="400" y2="405" /><text  class="poloto_text" alignment-baseline="start" text-anchor="middle" x="150" y="430" > -3</text><line  class="poloto_axis_lines" stroke="black" x1="233.33333333333331" x2="233.33333333333331" y1="400" y2="405" /><text  class="poloto_text" alignment-baseline="start" text-anchor="middle" x="233.33333333333331" y="430" > -2</text><line  class="poloto_axis_lines" stroke="black" x1="316.66666666666663" x2="316.66666666666663" y1="400" y2="405" /><text  class="poloto_text" alignment-baseline="start" text-anchor="middle" x="316.66666666666663" y="430" > -1</text><line  class="poloto_axis_lines" stroke="black" x1="400" x2="400" y1="400" y2="405" /><text  class="poloto_text" alignment-baseline="start" text-anchor="middle" x="400" y="430" > 0</text><line  class="poloto_axis_lines" stroke="black" x1="483.3333333333333" x2="483.3333333333333" y1="400" y2="405" /><text  class="poloto_text" alignment-baseline="start" text-anchor="middle" x="483.3333333333333" y="430" > 1</text><line  class="poloto_axis_lines" stroke="black" x1="566.6666666666666" x2="566.6666666666666" y1="400" y2="405" /><text  class="poloto_text" alignment-baseline="start" text-anchor="middle" x="566.6666666666666" y="430" > 2</text><line  class="poloto_axis_lines" stroke="black" x1="650" x2="650" y1="400" y2="405" /><text  class="poloto_text" alignment-baseline="start" text-anchor="middle" x="650" y="430" > 3</text><line  class="poloto_axis_lines" stroke="black" x1="150" x2="144" y1="350" y2="350" /><text  class="poloto_text" alignment-baseline="middle" text-anchor="end" x="135" y="350" > -2</text><line  class="poloto_axis_lines" stroke="black" x1="150" x2="144" y1="250" y2="250" /><text  class="poloto_text" alignment-baseline="middle" text-anchor="end" x="135" y="250" > 0</text><line  class="poloto_axis_lines" stroke="black" x1="150" x2="144" y1="150" y2="150" /><text  class="poloto_text" alignment-baseline="middle" text-anchor="end" x="135" y="150" > 2</text><path  stroke="black" fill="none" class="poloto_axis_lines" style="stroke-dasharray:8.333333333333332;stroke-dashoffset:-0;" d=" M 150 400 L 650 400" /><path  stroke="black" fill="none" class="poloto_axis_lines" style="stroke-dasharray:8.333333333333334;stroke-dashoffset:-50;" d=" M 150 400 L 150 100" /></svg>